# xmcd
#
# Track frame offsets:
#	150
#	20290
#	39550
#	53196
#	70071
#	85353
#	101752
#	112308
#	129265
#	150988
#	166972
#	183335
#	200662
#	214279
#
# Disc length: 3020 seconds
# Revision: 0
# Processed by: cddbd v1.5.2PL0 Copyright (c) Steve Scherf et al.
# Submitted via: dBpowerAMP V12.0
#
DISCID=c10bca0e
DTITLE=Various Artist - Relax
DYEAR=2011
DGENRE=Hip Hop
TTITLE0=Das Racist - Relax
TTITLE1=Das Racist - Michael Jackson
TTITLE2=Das Racist - Brand New Dance
TTITLE3=Das Racist featuring Anand Wilder - Middle Of The Cake
TTITLE4=Das Racist - Girl
TTITLE5=Das Racist featuring El-P - Shut Up, Man
TTITLE6=Das Racist - Happy Rappy
TTITLE7=Das Racist - Booty In The Air
TTITLE8=Das Racist featuring Danny Brown and Despot - Power
TTITLE9=Das Racist featuring Bikram Singh - Punjabi Song
TTITLE10=Das Racist - Selena
TTITLE11=Das Racist - Rainbow In The Dark
TTITLE12=Das Racist - The Trick
TTITLE13=Das Racist - Celebration
EXTD=
EXTT0=
EXTT1=
EXTT2=
EXTT3=
EXTT4=
EXTT5=
EXTT6=
EXTT7=
EXTT8=
EXTT9=
EXTT10=
EXTT11=
EXTT12=
EXTT13=
PLAYORDER=
